<svg xmlns="http://www.w3.org/2000/svg" viewBox="0 0 1920 1080"><defs><style>.cls-1{fill:#fdf8f3;}.cls-2,.cls-5{fill:#6c63ff;}.cls-2,.cls-6{opacity:0.1;isolation:isolate;}.cls-3{opacity:0.2;}.cls-4{fill:#3f3d56;}</style></defs><title>Asset 1</title><g id="Layer_2" data-name="Layer 2"><g id="Layer_4" data-name="Layer 4"><rect class="cls-1" width="1920" height="1080"/></g><g id="Layer_1-2" data-name="Layer 1"><path class="cls-2" d="M1598,777.07c-11.39,27.39-35.22,52.13-60.8,75.56q-33.73,30.9-72.16,59.72-10.65,8-21.64,15.8l-5.09,3.59q-6.76,4.78-13.77,9.49l-.56.38q-6.8,4.62-13.7,9.15c-15.07,9.9-31,19.73-48.61,27.87-6,2.78-12.19,5.37-18.6,7.69q-5.2,1.89-10.62,3.54c-5.92,1.8-12,3.37-18.35,4.66-1.06.22-2.13.43-3.2.63-6.5,1.22-13.08,2.11-19.73,2.72-24.37,2.23-49.54.6-74-3.22-12.2-1.91-24.21-4.37-35.83-7.17-1.43-.34-2.85-.69-4.28-1-39.57-9.9-76.72-23.34-116.57-32.79q-20.6-4.89-42-8.3-10.44-1.67-21-3c-16.57-2.06-33.35-3.44-50.2-4.14-22.72-1-46.18-.57-67.8,3.4q-4.32.79-8.53,1.78-5.34,1.25-10.48,2.85a186.29,186.29,0,0,0-26.89,11.07c-1.71.84-3.4,1.69-5.09,2.55h0c-5.3,2.7-10.53,5.46-15.84,8.14A200.45,200.45,0,0,1,783,980.66,157.14,157.14,0,0,1,765.93,985c-15.27,3.06-31.52,4.27-47.84,4.35-7.87,0-15.75-.17-23.54-.58h-.24c-2.66-.14-5.33-.3-8-.5-12.16-.83-24.28-2.11-36.22-3.86-40.91-6-79.71-17.34-110.92-34.64-42.39-23.48-69.31-58.49-65.27-93.47,2.9-25.2,20.91-48.6,38-71.51,31.79-42.66,61.57-86.29,77.24-132.28,12.71-37.33,16.5-76.8,45.75-110.35,9.37-10.74,21.35-20.54,35.3-29.13a226,226,0,0,1,32.68-16.52,282.24,282.24,0,0,1,39.39-12.85A313.84,313.84,0,0,1,777.58,477c6.46-.84,13-1.49,19.58-1.93q7.61-.53,15.27-.67h.79c3.13-.06,6.25-.06,9.38,0a436.8,436.8,0,0,1,68,6.39c14.06,2.35,28,5.23,41.65,8.4q12.22,2.83,24.22,5.93c2.44.63,4.88,1.27,7.29,1.92,56.92,15.25,107,36.31,161.84,53.59.28.09.55.18.83.25h0a338.75,338.75,0,0,0,34.24,8.6q12.74,2.55,26,4.46c13.52,2,27.33,3.58,41.24,4.94l3.07.3c20.41,2,41,3.49,61,5.23,7.1.62,14.14,1.26,21.08,2q6.6.66,13.08,1.4c3.1.36,6.21.72,9.32,1.1s6.4.78,9.6,1.19c2.08.26,4.15.53,6.23.82,12.6,1.67,25.17,3.54,37.6,5.68,7.56,1.3,15.08,2.7,22.51,4.21q8.07,1.64,16,3.46,5.88,1.34,11.66,2.8c31.31,7.87,60.61,18.19,85.86,32.12C1590.49,665.32,1619.83,724.69,1598,777.07Z"/><circle class="cls-2" cx="718.99" cy="354.77" r="21.63"/><circle class="cls-2" cx="1161.1" cy="307.63" r="21.63"/><circle class="cls-2" cx="1423.25" cy="356.07" r="21.63"/><circle class="cls-2" cx="506.25" cy="407.1" r="36.25"/><circle class="cls-2" cx="541" cy="586.1" r="36.25"/><circle class="cls-2" cx="1513.92" cy="520.21" r="36.25"/><g class="cls-3"><path class="cls-4" d="M1019,942.23a19.25,19.25,0,0,1-.37,3.21q-10.44-1.66-21-3v-.86a16.93,16.93,0,0,1,2.5-8.48c2.06-3.26,5.19-5.3,8.64-5.19s6.44,2.34,8.29,5.71A16.86,16.86,0,0,1,1019,942.23Z"/><ellipse class="cls-4" cx="1008.82" cy="924.82" rx="14.01" ry="10.7" transform="translate(52.6 1903.92) rotate(-88.19)"/><ellipse class="cls-4" cx="1009.36" cy="907.7" rx="14.01" ry="10.7" transform="translate(70.24 1887.88) rotate(-88.19)"/><ellipse class="cls-4" cx="1009.9" cy="890.57" rx="14.01" ry="10.7" transform="translate(87.87 1871.84) rotate(-88.19)"/><ellipse class="cls-4" cx="1010.44" cy="873.45" rx="14.01" ry="10.7" transform="translate(105.51 1855.81) rotate(-88.19)"/><path class="cls-5" d="M974.05,755a49.33,49.33,0,0,1-3.8-6l28.26-3.73-30.42-.73a51.38,51.38,0,0,1,.31-40.64l40.12,22.45L971.77,697.5a51.28,51.28,0,1,1,82.84,60,51,51,0,0,1,5.55,9.53l-37.09,17.8L1062.4,773a51.34,51.34,0,0,1-9.82,47.91A51.28,51.28,0,1,1,972,818.37,51.29,51.29,0,0,1,974,755Z"/><path class="cls-6" d="M1064.58,789.57a51,51,0,0,1-12,31.34A51.28,51.28,0,1,1,972,818.37C965.45,809.44,1064.76,783.82,1064.58,789.57Z"/></g></g></g></svg>