<svg xmlns="http://www.w3.org/2000/svg" viewBox="0 0 907.28 681.68"><defs><style>.cls-1{opacity:0.1;isolation:isolate;}.cls-2{fill:#be6f72;}.cls-3{fill:#3f3d56;}.cls-4{fill:#fbbebe;}.cls-5{fill:#e3e8f4;}.cls-6{fill:#f86d70;}.cls-7{fill:none;stroke:#333;stroke-miterlimit:10;stroke-width:8px;}.cls-8{fill:#6c63ff;}.cls-9{fill:#2f2e41;}</style></defs><title>hero-front</title><g id="Layer_2" data-name="Layer 2"><g id="Layer_1-2" data-name="Layer 1"><path class="cls-1" d="M247.21,209.16a38.51,38.51,0,0,1-.53,9.1c-2,9.29-10.46,15.67-18.65,20.51s-17.19,9.42-22.06,17.59c-5.87,9.87-4,23.14,2.89,32.36s17.81,14.71,29,17c20.5,4.23,43-1.71,58.32-15.91s23.08-36.39,19.31-57c-8.34,1.17-15.77-6.19-18.47-14.17s-2.14-16.63-3.19-25a8.49,8.49,0,0,0-1.24-4c-1.17-1.62-3.24-2.28-5.17-2.81-9.64-2.65-25.86-8.45-35.85-6.23C242.62,182.66,247.06,201.6,247.21,209.16Z"/><path class="cls-2" d="M235.56,651.87a197.91,197.91,0,0,1-29.74,12.62,156.55,156.55,0,0,1-17.08,4.36,108,108,0,0,1,1.25-23c.78-4.37,1.93-8.7,2.23-13.13a34.37,34.37,0,0,0-3.95-18.44c11.14-1.52,21.72-4,32.91-3.27l.71,0a12.64,12.64,0,0,1,3.9.73,10.5,10.5,0,0,1,4.23,3.72,25.61,25.61,0,0,1,1.59,2.45c3.16,5.46,4.36,11.76,4.61,18.25A120.44,120.44,0,0,1,235.56,651.87Z"/><path class="cls-3" d="M311.06,576.77c-.68,6.54-1.68,13.1-4,19.25-2.51,6.6-6.59,13-6.07,20.05.23,3.06,1.27,6.38,1.42,9.41q-4.32.79-8.53,1.78-5.34,1.26-10.48,2.85a188.38,188.38,0,0,0-26.89,11.07c-1.71.84-3.4,1.69-5.09,2.55h0c-.7-.09-1.39-.2-2.09-.33-5-.91-10.26-3.15-13.09-7.15a11.9,11.9,0,0,1-1.51-3c-1.63-4.87.07-10.94-3.32-14.8l-.16.14-.12.08a32.83,32.83,0,0,1-6.08,4.38h0a40.72,40.72,0,0,1-33,3.18,36.51,36.51,0,0,1-6.19-2.78c-4.58-2.61-9-7-8.64-12.24.2-2.92,1.87-5.72,1.42-8.61-.33-2.07-1.69-3.79-2.71-5.62-6.69-12,1.29-27.43-2.91-40.47-.1-.31-.21-.62-.32-.92-.31-.85-.66-1.67-1-2.49-.86-1.91-1.82-3.79-2.58-5.75a34,34,0,0,1-1.5-5.07,63.62,63.62,0,0,1-1-15.22c0-13.43,2.4-27.18,5.82-40.12.61-2.3,1.29-5.55,2.19-9.09h0a69.91,69.91,0,0,1,3.54-10.92c2-4.6,4.72-8.27,8.44-9.14,5.6-1.31,14.16,1.46,19.84,2.14l22.45,2.68L273.79,468c7.75.93,15.89,2,22.28,6.36.42.29.83.59,1.24.91a25.34,25.34,0,0,1,4.5,4.58c.46.59.9,1.21,1.32,1.84a41.28,41.28,0,0,1,3.7,7.06c5.57,13.38,5.7,28.31,5.74,42.8C312.57,546.65,312.62,561.76,311.06,576.77Z"/><path class="cls-1" d="M225,623.11c-1.35-5.2-4.2-12.73-4.62-14.78a187.2,187.2,0,0,1-3.06-20.82c-1.11-12.46-3.11-30,1.29-41.85,4.13,2.2,7.76,8.43,9.67,12.68,6.92,15.41-.87,34.33,5.63,49.92a8.19,8.19,0,0,1,.89,3,7.21,7.21,0,0,1-1.38,3.68l-2.19,3.64Z"/><path class="cls-2" d="M369,147.37c7.36-12,17.44-23.8,16.81-37.83-.23-5-1.87-9.89-3.12-14.79A94.5,94.5,0,0,1,382,51.46a48.92,48.92,0,0,1,35.36,7.92c3.27,2.26,6.37,5.07,7.81,8.78,1.33,3.42,1.11,7.23.87,10.89-.55,8.41-1.3,17.38-6.48,24-1.61,2.07-3.59,3.82-5.16,5.91-2.29,3-3.63,6.66-4.94,10.23l-17,46.25c-8.58,23.31-17.88,47.69-36.78,63.82-.46.39-14-18.84-15.12-20.77-4.53-7.91-2.55-11.25,2.93-17.87C354.32,177.53,360.19,161.74,369,147.37Z"/><path class="cls-1" d="M174.2,541.58a75.6,75.6,0,0,1-.87,10.31c-.18,1.26-.39,2.51-.64,3.76-3.41,17.8-11.9,34.73-17.84,52.07-7.83,22.89-11.27,42.75-14,65.48-7.87,0-15.75-.17-23.54-.58h-.24c-2.66-.14-5.33-.3-8-.5,2.41-21.2-2-43.44,2.31-64.66,1.74-8.54,4.71-16.83,6.5-25.33a69.23,69.23,0,0,0,1.25-7.58c.25-2.42.38-4.93,1.47-7.11.1-.21.22-.41.34-.61a17.24,17.24,0,0,1,3.52-4,87.91,87.91,0,0,1,43.06-20.53C169.79,542,172,541.73,174.2,541.58Z"/><path class="cls-4" d="M123.5,587.15a156.48,156.48,0,0,1-1.37,16.61c-2.67,22.51-3.17,46-5,68.85-2.66-.14-5.33-.3-8-.5C97,671.28,84.85,670,72.91,668.25q1.38-7.71,2.78-15.44c1.14-6.31,2.28-12.68,2-19.08-.31-6.05-1.93-11.94-3.22-17.87-2.75-12.7-4.29-26.4-8.82-38.38a50,50,0,0,0-11.06-18c18.74-7.36,36.75-7.78,56.88-7a7.21,7.21,0,0,1,4.08,1,6.82,6.82,0,0,1,2,3.1,77.22,77.22,0,0,1,5.63,22.82A74.39,74.39,0,0,1,123.5,587.15Z"/><circle class="cls-2" cx="274.45" cy="165" r="39"/><path class="cls-5" d="M282.56,256.15c5-8.53,9.38-19.18,19-21.55,5.43-1.35,11.08.49,16.37,2.3a8,8,0,0,1,4,2.32,7.89,7.89,0,0,1,1.21,4.14,270.49,270.49,0,0,1-.17,53c-1.27,12.47-3.41,24.88-3.79,37.41-.53,17.37,2.33,34.74,1.39,52.09-.71,13.15-3.59,26.07-6.45,38.92l-12,53.8a9.08,9.08,0,0,1-1.93,4.55,8.85,8.85,0,0,1-3.54,2A131.72,131.72,0,0,1,190,476.78c-4.33-2.38-8.65-5.13-11.47-9.19-4-5.76-4.37-13.38-3.07-20.28s4.11-13.41,6-20.18c2.92-10.5,3.61-21.46,4.27-32.34.88-14.32,1.76-28.73.23-43-1-9.83-3.24-19.51-4.89-29.26a322.73,322.73,0,0,1-4.22-44.43c-.25-8.89.16-18.76,6.31-25.17,3-3.12,7-5,11.07-6.52,6.83-2.52,14.46-4,21.36-1.7s12.46,9.54,10.83,16.63c-.75,3.29-2.88,6.17-3.4,9.51-.69,4.42,1.65,8.87,5,11.86C246.06,299,273.57,271.59,282.56,256.15Z"/><path class="cls-3" d="M284,216.3a29.57,29.57,0,0,1,17.09-1c3.61.86,7.51,2.38,10.84.77,1.21-.58,2.21-1.53,3.43-2.07,3.3-1.45,7.58.33,10.5-1.78,1.84-1.33,2.44-3.75,3.06-5.95a53.46,53.46,0,0,1,17.63-26.72c-1.05,7.67-1.81,16.4,3.26,22.26,2.31,2.66,5.55,4.33,8.83,5.63,4.71,1.87,9.88,3.11,14.85,2.09s9.62-4.78,10.41-9.79c-.17,7.53-7.34,12.79-9.35,20.06-.76,2.72-.69,5.61-1.22,8.39-1.35,7.1-6.42,12.8-10.85,18.52a131.84,131.84,0,0,0-26.2,63.22,30.06,30.06,0,0,1-1.7,8,50.07,50.07,0,0,1-3.32,5.72c-7.33,12.38-5.07,28-2.58,42.14,3.89,22.15,7.77,43.85,14.07,65.44,1.08,3.69,2.3,7.54,5.05,10.23-.87,8.73-9.68,12.71-17.6,16.48a86.61,86.61,0,0,0-21.4,14.49c-2.28,2.1-4.53,4.46-5.36,7.45-.78,2.81-.22,5.9-1.22,8.63s-5,4.69-6.76,2.39c-2.2-8.23,1.56-16.84,1.39-25.36-.12-5.75-2-11.34-2.27-17.09-.26-6.51,1.66-12.9,3.7-19.08,5.68-17.21,12.54-34.26,14.51-52.27s-1.71-37.68-14.49-50.53c-15.17-15.32-23.59-36.09-39.85-50.16-2.58-2.23-5.5-5-5.07-8.38a9.45,9.45,0,0,1,1.91-4.06c5.58-7.88,13-14.31,19-21.85S285.08,225.9,284,216.3Z"/><path class="cls-3" d="M230.6,232.43c-1,1-1.69,2.38-2.85,3.24a9.28,9.28,0,0,1-4.49,1.39,142.88,142.88,0,0,1-17.77,1.59c-5,0-10.19-.44-15,.93-6.71,1.9-12.07,7.2-15.43,13.3s-4.95,13-6.24,19.87a266.72,266.72,0,0,0-4.55,45.89A120.37,120.37,0,0,0,186.12,296c4.8-6.51,9.15-13.71,16-18.06,3.15-2,6.69-3.32,9.86-5.27,6.61-4.07,11.19-10.65,15.59-17,3.24-4.71,12.61-13.91,13.35-19.55C241.55,230.69,234.1,228.06,230.6,232.43Z"/><path class="cls-3" d="M265.44,138.3a31.11,31.11,0,0,1,3.54,2.47c6.79,4.74,15.88,3.86,24.09,2.78,2.52-.32,5.11-.68,7.27-2,3.47-2.14,5.1-6.54,4.76-10.61s-2.39-7.82-4.89-11A39.59,39.59,0,0,0,272.86,105a17.68,17.68,0,0,0-8.19.87c-3.23,1.33-5.66,4.07-8.64,5.9-8.79,5.4-22.33,3-28,11.62-4.15,6.36-1.19,15-3.15,22.31-1.46,5.46-5.67,10.43-4.86,16,.45,3,2.33,5.62,3.83,8.3a36.63,36.63,0,0,1,4.59,20.23c3.85,2.72,9.22-1.51,10.29-6.09s-.16-9.46.75-14.08c1.61-8.11,8.77-14.06,12-21.5C253.8,143.25,257.58,134.25,265.44,138.3Z"/><path class="cls-1" d="M170.88,227.07c-.3,1.82-.49,3.83.52,5.37,2,3,6.58,1.92,10.18,2.37,5.61.69,9.75,6,10.84,11.58s-.21,11.26-1.63,16.74q-4.81,18.63-11.48,36.73c-11.94-1.41-24.51-6-30.85-16.19-5.76-9.27-5.17-21.08-8.83-31.36-2.57-7.24-7.18-13.54-11.74-19.72,7.33.92,12.57-7.46,13-14.84s-1.89-14.87-.31-22.08c.37-1.71,29.26,3.68,32.07,5.63C180.77,206.93,172.16,219.25,170.88,227.07Z"/><circle class="cls-4" cx="164.45" cy="176" r="39"/><path class="cls-3" d="M152.44,221.47c1.42-2.22-1-5.32.11-7.71.66-1.44,2.33-2.06,3.62-3a13.39,13.39,0,0,0,3.77-4.89,56.78,56.78,0,0,0,5.2-38c-.92-4.32-1.74-10.06,2.21-12a7.23,7.23,0,0,1,3.49-.6c7.12.23,14,5,20.91,3.31a12,12,0,0,0,8.8-10.47c.45-6.46-4.39-12-9.15-16.35-8.57-7.88-21.63-9.63-33.27-9.82l-21.65-.36c-6.93-.12-14.7.1-19.52,5.07-6.94,7.15-3.45,18.85-4.45,28.76a30,30,0,0,1-11,20.15c-4.49,3.58-10.67,7-10.59,12.72,0,2,.86,3.82,1.41,5.71,2.21,7.48.1,15.75-4.14,22.3s-10.44,11.59-16.87,16c-3.44,2.35-7,4.61-9.72,7.8a23,23,0,0,0-5.07,12.93,17.08,17.08,0,0,0,2.12,10.43c4.23,6.76,14.38,7.75,21.33,3.83S91.17,256,94,248.53c1.68-4.43,3.39-9.5,7.69-11.49,5.44-2.53,11.8,1.47,15.34,6.32s5.72,10.77,10.25,14.71c7.1,6.18,19.18,5.18,25.18-2.08,4.29-5.21,5.24-12.42,5-19.17A28,28,0,0,0,152.44,221.47Z"/><path class="cls-6" d="M166.44,272.3c-4.45.95-9.1-1.15-12.41-4.29s-5.54-7.19-7.86-11.11A195.94,195.94,0,0,0,126,229c-6.56-7.57-15.69-15.26-25.43-12.92a24.18,24.18,0,0,0-8.88,4.75,64.78,64.78,0,0,0-24.17,57.78c.76,6.37,2.49,12.6,3.21,19a120.14,120.14,0,0,1,.42,15.87c-.27,16.12-.82,33.17-9.51,46.75-13.47,21-20.68,46.08-30.57,69-5.34,12.39-8.54,25.58-11.68,38.7q-2.79,11.69-5.57,23.35l-12.1,50.9c-1.25,5.25-2.5,10.75-1.18,16,2,7.84,9.37,13.32,17.14,15.55s16,1.85,24.07,1.92c15.44.15,31,2.07,45.49,7.43,4.14,1.53,8.27,3.36,12.68,3.72s8.8-.79,12.93-2.39c11.27-4.36,20.93-12,31.31-18.17a124.93,124.93,0,0,1,20.4-9.87c3.56-1.33,7.38-2.59,9.83-5.5,1.85-2.19,2.68-5.05,3.29-7.85,3.38-15.76,1.11-32.09,0-48.17s-10.72-33.07-2.77-47.09c1.6-2.83,3.51-5.55,4.33-8.69,1.08-4.1.17-8.51,1.08-12.65.67-3.06,2.28-5.81,3.38-8.74,1.92-5.16,2.18-10.78,2.16-16.29a177.83,177.83,0,0,0-3.8-36c-3.15-15,7.27-29.83,13.24-44,2.14-5.07,5.17-9.86,6.06-15.29.8-4.9-.23-9.89-1-14.8a130.11,130.11,0,0,1-1.4-23c.19-6.9.92-13.93-.73-20.64s-6.36-13.22-13.13-14.6a5.37,5.37,0,0,0-4.52.71,5.92,5.92,0,0,0-1.59,2.8c-2.2,6.74-1.77,14-3,21S173.34,270.82,166.44,272.3Z"/><g id="TeaVup"><path class="cls-7" d="M263,231.46c-.8-.57-10.64.39-11.74,3.33-.95,2.58,3.36,6.38,7.18,8.51a25.33,25.33,0,0,0,14.44,2.83S266.53,234,263,231.46Z"/><path class="cls-8" d="M308.66,194.57l.32,2.48,2,15.35,3.32,25.12.84,6.29c.13,1-.79,2.08-2.15,2.54L282,256.88c-1.36.46-2.74.16-3.25-.71l-3.18-5.49-12.72-22L255,215.33l-1.25-2.16c-.56-1,.16-2.26,1.6-2.91l.37-.14,49.49-16.77c1.5-.51,3-.08,3.35,1A2.68,2.68,0,0,1,308.66,194.57Z"/><path class="cls-9" d="M307.84,196a312.71,312.71,0,0,1-52.58,17.82,2.23,2.23,0,0,1-2.93-1.11h0l-.84-2.48a2.24,2.24,0,0,1,1.65-2.65h0a277,277,0,0,0,52.58-17.82,2.23,2.23,0,0,1,2.93,1.1l.84,2.48A2.24,2.24,0,0,1,307.84,196Z"/><path class="cls-1" d="M308.29,194h0a2,2,0,0,0-.4-.27h0l-.13-.07-.05,0-.43-.13-.11,0-.11,0h-.82l-.26,0h-.07l-.21,0-.08,0-.28.09h0l-49.48,16.77c-1.51.51-2.44,1.77-2.08,2.81a1.28,1.28,0,0,0,.11.24l.21.36,1,1.8h0L262.9,229h0l10.2,17.6,5.7,9.84c.5.87,1.89,1.17,3.25.71l1.47-.5a1.64,1.64,0,0,1-.29-.36l-3.84-6.62,35-11.88-3.32-25.13-44.44,15.06L259,214.55a438.59,438.59,0,0,0,50.06-17.21l-.33-2.49A1.38,1.38,0,0,0,308.29,194Z"/></g><path class="cls-2" d="M72.07,315.25c.41-2.77-.88-6.45-3.68-6.35-2.58.1-3.73,3.33-3.72,5.92s.36,5.56-1.47,7.38c-1.62,1.61-4.3,1.56-6.18,2.87a5.1,5.1,0,0,0-2.13,4.17c0,1.39.63,2.72.67,4.11s-.89,3-2.27,2.91a6.29,6.29,0,0,0,.91,7.6c.72.7,1.66,1.3,1.9,2.28a5.24,5.24,0,0,1-.16,2.05c-.42,2.75,1.48,5.83,4.25,6.13-1.55,1.11-1.24,3.71.18,5s3.46,1.54,5.37,1.54a32.49,32.49,0,0,0,12.61-2.61,7.43,7.43,0,0,0,3.48-2.4,3,3,0,0,0-.29-3.88c1.94.32,4.27.5,5.54-1,1.77-2.1-.13-5.21-2-7.24a4,4,0,0,0,1.86-7.12c-.64-.47-1.51-.88-1.6-1.67s.58-1.3.86-2c.64-1.57-.82-3.17-2.23-4.12-3.34-2.22-8.26-2.18-11.23-4.42S71.64,318.25,72.07,315.25Z"/><path class="cls-4" d="M96.81,222.5c-10.75,4.43-15,18.21-12.48,29.55s10.11,20.79,17.51,29.78l20.74,25.3c5.73,7,12,14.37,20.74,16.81,12.78,3.57,25.56-4.57,36.61-11.93a551.54,551.54,0,0,1,105.16-54.76c3.61-1.4,7.31-2.82,10.28-5.32,6.16-5.18,7.89-14.73,4.46-22s-11.42-12-19.47-12.06a26.31,26.31,0,0,0-20.72,10.64c-2.31,3.07-4,6.58-6.23,9.7-5.64,7.84-14.44,12.69-23,17.07a587.35,587.35,0,0,1-64,28c-4,1.46-8.51,2.85-12.28.92-2.31-1.19-3.87-3.44-5.27-5.64a140.06,140.06,0,0,1-15.1-32.18c-2.73-8.5-4.94-17.76-11.5-23.8-9.3-8.56-26.14-6.51-33.11,4,0,0-8.17,11.95-3.17,16.95S96.81,222.5,96.81,222.5Z"/><path class="cls-1" d="M657.65,181.12c1.46,3.89,1.5,8.15,1.29,12.3-.26,5.06-1.53,11-6.23,12.93-3.06,1.23-6.84.3-9.56,2.16-3.3,2.24-3.14,7.06-2.63,11,1.41,10.83,3,22.06,8.9,31.22,3.17,4.91,7.46,9,11.81,12.91,8.67,7.82,18.18,15.46,29.57,18.07a12.22,12.22,0,0,0,5.7.24,11.64,11.64,0,0,0,4.93-3c6.6-6.06,10-14.71,14.4-22.55,3.11-5.61,6.82-11,8.57-17.18A30,30,0,0,0,715.22,209c-2-1.67-4.11-3.07-6-4.8-4.94-4.48-7.82-10.91-9-17.47a76.45,76.45,0,0,1-.43-20c-10-.77-19.93.44-29.69,2.39-4.34.87-10.45,1.27-14.38,3.34C651.3,174.76,656.44,177.77,657.65,181.12Z"/><path class="cls-4" d="M601.85,210.55c-16.24-5.57-24-27.33-41-29.77-2.68-.39-5.43-.24-8.06-.86-9.79-2.32-14-13.64-16.83-23.29-9.54-32.17-22-63.65-39.7-92.17-7.47-12-19.28-21.86-24.67-35-1.24-3-1.87-6.42-4.1-8.79s-7-2.71-8.21.31a7.14,7.14,0,0,0-.22,3.31l1.17,12.45-20.34-1.83a11.94,11.94,0,0,0-5.63.4,9.63,9.63,0,0,0-4.43,4.61C423,52.85,430.28,69.79,442.42,78c14.18,9.55,34.43,11,43.85,25.25,5.6,8.48,5.71,19.39,9.4,28.86,1.76,4.53,4.33,8.69,6.38,13.08,3.91,8.37,5.91,17.47,8.94,26.19,4.34,12.47,10.77,24.09,17.18,35.64,4.94,8.92,10,18,17.6,24.82,5,4.48,10.88,7.8,16.76,11,14.46,7.9,31.51,15.5,46.83,9.44C610.24,238.59,606.81,223.36,601.85,210.55Z"/><path class="cls-4" d="M651.16,641c-1.23,13.05-9.15,24.87-11,37.43-12.2-1.91-24.21-4.37-35.83-7.17-1.43-.34-2.85-.69-4.28-1,6.58-18,.85-38.16,2.59-57.33.17-1.84.41-3.68.73-5.5,15.07-5.14,28.68-12,44.48-10,.31,3.2.63,6.41.94,9.61q1,9.6,1.88,19.16A77.11,77.11,0,0,1,651.16,641Z"/><path class="cls-4" d="M755.38,673.67c-5.92,1.8-12,3.37-18.35,4.66-1.06.22-2.13.43-3.2.63-6.5,1.22-13.08,2.11-19.73,2.72-.68-13.9-10-26.68-11.36-40.95a61.11,61.11,0,0,1,.11-10.65c.12-1.4.26-2.8.39-4.2l2.82-28.77a45.09,45.09,0,0,1,6.77-.33c13,.31,24.83,5.94,37.71,10.33a89.54,89.54,0,0,1,1,18.36c-.49,15.62-3,31.43,2.8,45.76C754.67,672,755,672.85,755.38,673.67Z"/><path class="cls-6" d="M586.58,454.33c1.75,13.64-5.22,26.7-8.24,40.11-2,8.87-2.27,18-2.54,27.1l-1.58,54.51c-.16,5.45-.3,11,1.36,16.23,3.34,10.48,13.63,17.56,24.34,20.08s21.91,1.24,32.82-.2c5.35-.71,10.93-1.54,15.36-4.63,6.09-4.25,8.75-11.82,11-18.88l6.49-19.93c7.47,16.82,4.31,35.21,8.79,53.06a10.35,10.35,0,0,0,2,4.53c1.89,2.1,5,2.43,7.83,2.63,19.6,1.38,39.47,2.75,58.75-1,5.3-1,10.83-2.62,14.49-6.6,4.26-4.63,5-11.44,5-17.73-.27-21.61-8.08-42.46-9.82-64-.75-9.23-.38-18.51-.71-27.77A185.92,185.92,0,0,0,750,491a27.86,27.86,0,0,0-2.56-9.1c-3-5.6-9.23-8.64-15.13-11C686.44,452.32,636,452.5,586.58,454.33Z"/><circle class="cls-4" cx="671.45" cy="143" r="43"/><path class="cls-5" d="M708.93,218.74c-3.19,7-8.21,14-15.68,15.78-6.87,1.65-14.15-1.66-19.21-6.59s-8.37-11.33-11.88-17.46c-2.56-4.48-5.41-9-9.74-11.82-5.92-3.84-13.56-3.74-20.54-2.61s-13.91,3.15-21,2.69c-8.83-.59-17.83-5-26.16-2.06,2.7,12.08,1.73,25.36,1.42,37.74a16.61,16.61,0,0,1-.8,5.64,17.73,17.73,0,0,1-2.91,4.68l-8,10.31c8.58,6.42,16,14.8,19,25.09,1.69,5.86,1.17,12.08,1.11,18.18-.19,17.91,3.7,35.75,2.47,53.62-1.44,20.93-9.8,40.71-14.11,61.24a160.6,160.6,0,0,0-2.06,53.6c44.82,15.51,91,23.45,138.38,26.05,8.37.46,17.41.53,24.28-4.28,5.71-4,8.91-10.85,10-17.75s.34-13.92-.42-20.86q-3.09-28.14-6.17-56.3c-1.17-10.68-2.34-21.42-1.58-32.13.57-8,2.21-15.85,3.84-23.68l10-48.06c1.43-6.83,2.87-13.71,5.7-20.08,2.32-5.2,5.53-10,8.09-15.06a66,66,0,0,0,6.24-19.27,12.65,12.65,0,0,0-.08-5.9c-1.07-3.28-4.34-5.25-7.39-6.86a214.9,214.9,0,0,0-59.16-20.75C711.17,207.73,711.44,213.25,708.93,218.74Z"/><path class="cls-3" d="M704.78,189.94c5-9.58,14.35-16.3,19.78-25.66a37.92,37.92,0,0,0,1.22-35c-1.91-3.9-4.5-7.48-6-11.56-1.67-4.64-1.83-9.75-3.76-14.29-2.65-6.22-8.39-10.7-14.64-13.28s-13-3.51-19.73-4.41l-22.72-3.06c-3.29-.44-6.7-.88-9.9,0s-6.18,3.49-6.44,6.81c-.31,3.93,3.14,7.59,2.34,11.45-.29,1.36-1.09,2.74-.63,4.06a4.14,4.14,0,0,0,2,2c5.39,3,11.83,3.27,17.67,5.23s11.7,6.88,11.11,13c-.32,3.29-2.44,6.71-1,9.66,1.38,2.73,5,3.23,7.89,4.08,9.35,2.71,15.91,12.85,14.55,22.5-.42,3-1.5,5.87-1.72,8.88-.73,10.54.93,13.55,9.54,19.68Z"/><path class="cls-1" d="M763.19,235.52a14.37,14.37,0,0,1-1.07,5.83c-3.12,6.65-12.67,6.23-19,10-7.88,4.7-9.62,15.19-10.34,24.33-.82,10.35-1.38,20.85.74,31s7.22,20.05,15.74,26c10.37,7.21,24.47,7.46,36.31,3.07s21.73-12.88,30.31-22.16c8.14-8.8,15.43-18.61,19.8-29.78.77-2,1.45-4.12.83-6.12-.93-3-4.2-4.36-6.86-6-6.21-3.75-10.35-10.29-12.5-17.2s-2.51-14.26-2.58-21.51c-.08-7.53-.1-15.76-4.9-21.57S796.55,204,789,204c-6.2,0-23.36.59-27.59,6C757.91,214.53,763.44,229.08,763.19,235.52Z"/><path class="cls-2" d="M709.87,503.7a8.52,8.52,0,0,0,2.08,4.08,8.19,8.19,0,0,0,3.37,1.59c32.82,9.63,67.88,5.79,101.86,1.86-4.65-14.16-9.33-28.48-10.62-43.33-1.07-12.25.13-25-4.21-36.49-1.28-3.4-75.88,12.25-83.24,13.52-3.77.65-8.11.43-10.78,3.42-3.22,3.62-3.49,12.24-3.83,16.75C703.54,478.13,706.23,491.25,709.87,503.7Z"/><path class="cls-1" d="M784.6,662.44c-6,2.78-12.19,5.37-18.6,7.69q-5.19,1.89-10.62,3.54c-5.92,1.8-12,3.37-18.35,4.66q-5.43-13.77-10.87-27.55c-2.67-6.76-5.34-13.55-7.57-20.46a129.72,129.72,0,0,1-3.82-14.39,102.73,102.73,0,0,1,2.48-49.77c13.86,2.61,27.41,4.31,41.06,6.29,7.29,1,14.6,2.18,22,3.57q.87,7.23,1.58,14.46,1.08,11.16,1.77,22.32Q785.19,637.61,784.6,662.44Z"/><path class="cls-2" d="M861.5,619.11c.08,5.76-1.56,11.64-3.08,17.29-.11.4-.21.79-.31,1.19a16.47,16.47,0,0,1-8.83-6.62,19,19,0,0,1-2.37-5.55q-6.78,4.62-13.7,9.15c-15.07,9.9-31,19.73-48.61,27.87-6,2.78-12.19,5.37-18.6,7.69q-2-7-3.8-14.09a130.26,130.26,0,0,1-3.08-14.79,75.19,75.19,0,0,1,3.32-33.65h0l.45-1.3a74.1,74.1,0,0,1,6.55-13.79c2.49-4,7.42-3.33,12.45-2,2.28.59,4.59,1.3,6.69,1.74,13.07,2.74,26.64-.09,40,.66a47.9,47.9,0,0,1,18.35,4.67c6.43,3.23,11.61,8.17,13.64,15a22.33,22.33,0,0,1,.66,3A26.09,26.09,0,0,1,861.5,619.11Z"/><path class="cls-2" d="M620.92,158.56c-20.65-20-44.12-36.95-68.13-52.8a189,189,0,0,1-18-12.83c-6-5-11.23-10.87-17.6-15.37s-14.25-7.59-21.9-6.11S480.84,80.25,482,87.91c1,6.74,7.06,11.36,12.66,15.23,10.6,7.33,21.25,14.68,32.78,20.43a103.6,103.6,0,0,1,11.63,6.2c7.18,4.84,12.41,12,17.84,18.73a260.46,260.46,0,0,0,74,63c.34.2,12.17-25.33,11.67-28.64C641.44,175.25,626.36,163.84,620.92,158.56Z"/><path class="cls-3" d="M797.54,481.72c-15.94,1-31.23,6.38-46.82,9.81s-32.53,4.76-47-2l8.8,60.09c.49,3.34,1,6.76.27,10s-2.41,6.1-2.26,9.31c.23,5.08,5,8.65,9.49,11a84.77,84.77,0,0,0,42.4,9.77c-1.09,4.4-2.45,8.75-3.55,13.15,7.35,7.89,19.37,8.42,29.86,10.92,8,1.89,15.5,5.17,23.34,7.48a99.59,99.59,0,0,0,29.21,4.07c6.67-.07,13.74-1,18.92-5.16,6.37-5.13,8.35-13.85,9.73-21.91.77-4.5,1.48-9.06,1-13.6-.52-5.22-2.54-10.16-4.54-15l-13.7-33.25c-2.49-6-5-12.09-8-17.88C834.89,499.84,818.63,480.41,797.54,481.72Z"/><path class="cls-8" d="M809.74,274.1a15,15,0,0,1,15.7-9.57c4,.56,7.57,2.75,11,4.89l19.1,11.92a83.7,83.7,0,0,1,9.09,6.26c13.17,10.92,18.25,28.87,19.7,45.92s0,34.39,3.39,51.16c-8.06,6.68-17,12.33-25.06,19-4.22,3.49-8.49,7-11.69,11.49-2.54,3.53-4.35,7.57-7,11a26.45,26.45,0,0,1-17.53,9.74c4.37,2.54,6.82,7.47,8,12.38s1.5,10,2.81,14.91c1.8,6.67,5.53,12.76,6.76,19.56.86,4.69.48,9.5.79,14.26,1.56,24.63,20.89,46.16,19.64,70.8a107.19,107.19,0,0,1-25.66-13.49c-3.56-2.55-7-5.31-10.37-8.06l-25.47-20.65c-12.39-10-24.9-20.22-34.75-32.78C762,485,757,476.24,750.77,468.38s-13.83-15-23.3-18.3c-1.39,2.09-3.86,3.54-5.25,5.63a4.5,4.5,0,0,0-.58,1.08,4.74,4.74,0,0,0,.33,2.76,57.2,57.2,0,0,1,2,12.39l.63,7.52a25.09,25.09,0,0,1,0,6c-1,6.43-6.91,11.42-13.34,12.42a5.81,5.81,0,0,1-2.81-.09c-1.79-.6-2.78-2.49-3.32-4.29-2.53-8.54,1.35-17.55,1.66-26.44a61.08,61.08,0,0,0-.23-6.76l-.6-8.87c-5.81-1.21-9.15-7.45-10.69-13.18-4.16-15.47-8.35-31.48-5.94-47.32.64-4.24,1.76-8.54,1-12.78-1-5.67-5.08-10.27-7.23-15.61-7-17.41,7.87-36.31,6.49-55-.58-7.85-5.56-14.67-8.56-22a61.78,61.78,0,0,0-6-12.11c-3.06-4.37-7.19-7.87-11.2-11.39a427.74,427.74,0,0,1-35.18-34.66,26,26,0,0,1-15.15-6.94c-2.64-2.5-4.81-5.8-4.88-9.43s2.61-7.44,6.24-7.63c2.12-.11,4.1.94,6.17,1.4,6.48,1.42,13-3.35,15.89-9.34s2.89-12.88,2.84-19.52A18.73,18.73,0,0,1,657.09,182c4.47,4.86,7.38,10.92,10.9,16.5a25.88,25.88,0,0,0,5.44,6.57c4.81,3.82,11.74,4.54,15.94,9,2.13,2.28,3.31,5.3,5.26,7.74,5.48,6.87,15.51,7.71,23,12.23s12.7,12.78,21,15.46c3,1,6.27,1.13,9.24,2.24,6.86,2.55,11,9.84,12,17.09s-.67,14.58-2.31,21.72l-3.85,16.71c-.85,3.7-1.5,8.15,1.23,10.79a11.12,11.12,0,0,0,4.43,2.23c7,2.28,14.8,4.52,21.38,1.29,3.11-1.54,5.55-4.14,7.78-6.8C798.29,303.31,804.78,288.25,809.74,274.1Z"/><path class="cls-2" d="M888.67,614.15c-1.38,9.15-6.42,18.15-14.67,22.34a21,21,0,0,1-15.89,1.1,16.47,16.47,0,0,1-8.83-6.62,19,19,0,0,1-2.37-5.55,1.73,1.73,0,0,0-.07-.31,44.25,44.25,0,0,1-.93-10.77,142.74,142.74,0,0,1,1-16.79,91.15,91.15,0,0,1,2.76-13.88c1.86-6.49,4.54-12.74,7-19,1.28-3.3,2.51-6.61,3.52-10h0c.61-2,1.13-4.06,1.55-6.14l.15-.75c.08-.42.15-.84.22-1.26,1-5.7,1.29-11.6,3.86-16.75,6-12.09,17.68-9,19.46,2.15a17.69,17.69,0,0,1,.23,2.61c.27,14.11-5.33,27.9-2.77,42.06a99.18,99.18,0,0,0,2.72,10.22c.9,3.09,1.71,6.22,2.33,9.39A53.08,53.08,0,0,1,888.67,614.15Z"/><path class="cls-8" d="M894.17,457.25c.27,5.78,0,11.63,1.16,17.3,2.71,13.4,13,25.26,11.86,38.88-.28,3.32-1.51,6.89-4.41,8.53s-7.7,1.51-8.65,4.81c-.27.92-.13,1.92-.43,2.83-.63,1.94-3,2.77-5,2.72s-4-.71-6.07-.54c-7.25.61-9.91,10.31-16.37,13.64-4.35,2.24-10,1-13.59-2.31s-5.16-8.47-4.88-13.36c.21-3.69,1.38-7.25,2-10.89,1.13-6.49.54-13.14,0-19.7-.87-9.61-1.77-19.34-4.93-28.45-1.49-4.3-3.47-8.41-4.76-12.77-1.84-6.17-2.26-12.66-2.45-19.09-.39-13.53.54-28,8.62-38.88,6.07-8.16,14.77-14.79,21.64-22.34,4.3-4.73,5.54-6.21,10.29-2.2,3.91,3.29,8,7.83,8.44,12.29,1.2,11.43,0,22.67,2.14,34.31S893.61,445.3,894.17,457.25Z"/><circle class="cls-2" cx="790.45" cy="186" r="51"/><path class="cls-3" d="M837.15,283.56c1.12-1.57,2.45-3.26,4.35-3.59a7.62,7.62,0,0,1,4.14.87l13.43,5.61a43.81,43.81,0,0,0,6.24-19.76c.28-4.29-.06-8.64.76-12.86,1.22-6.26,4.93-11.87,5.79-18.19.68-5.1-.55-10.23-1.29-15.32-2.28-15.72.17-31.76-1.14-47.59s-7.66-32.79-21.78-40.06c-4-2-8.31-3.2-12.47-4.78-9.27-3.53-17.58-9.18-26.74-13s-19.92-5.57-28.8-1.18-14,16.74-8.28,24.8c1.9,2.65,4.68,4.53,7.34,6.44,5.41,3.87,10.93,8.65,12.18,15.19,2.24,11.77-10,21-13.45,32.51a27.77,27.77,0,0,0-.33,13.79c1.49,6.82,5.13,13.26,5,20.24-.1,7.65-4.68,14.58-5.54,22.19-.31,2.79-.12,5.62-.47,8.4a43,43,0,0,1-3.23,10.63c-8,20-16.11,40.21-28,58.19a77,77,0,0,0,36.63-8.56,60.36,60.36,0,0,1-9.17,21.54,69.18,69.18,0,0,0,28.66-10,92.68,92.68,0,0,1-9.1,21.61c.34-.58,6.63-2,7.79-2.66a13.45,13.45,0,0,0,5.5-5.87c3.4-6.08,5.52-13.41,8.67-19.73A288.41,288.41,0,0,1,837.15,283.56Z"/></g><g id="Layer_2-2" data-name="Layer 2"><g id="TeaVup-2" data-name="TeaVup"><path class="cls-7" d="M460.28,31.9c.67-.72,10.49-1.83,12.17.82,1.47,2.32-1.95,6.94-5.24,9.82a25.35,25.35,0,0,1-13.54,5.77S457.33,35.11,460.28,31.9Z"/><path class="cls-8" d="M407.92,5.05c.13-1.08,1.51-1.82,3.09-1.63L462.9,9.53c.14,0,.27,0,.4.06,1.54.34,2.51,1.46,2.17,2.51l-.78,2.37L459.88,29.2,452,53.31l-2,6c-.31.95-1.6,1.54-3,1.37l-32.58-3.84c-1.42-.17-2.55-1-2.62-2l-.5-6.33-2-25.27L408.11,7.82l-.19-2.5A1.22,1.22,0,0,1,407.92,5.05Z"/><path class="cls-9" d="M406.85,4.31l.31-2.6A2.22,2.22,0,0,1,409.79,0a277.19,277.19,0,0,0,55.13,6.49h0a2.23,2.23,0,0,1,2.17,2.25l-.3,2.61h0a2.24,2.24,0,0,1-2.64,1.68A310.76,310.76,0,0,1,409,6.56,2.22,2.22,0,0,1,406.85,4.31Z"/><path class="cls-1" d="M407.88,5.63l.2,2.5a439.68,439.68,0,0,0,52.54,6.42L455.89,29l-46.6-5.48,2,25.26L448,53.15l-2.38,7.28a1.23,1.23,0,0,1-.21.41L447,61c1.42.17,2.71-.41,3-1.37l3.53-10.81,6.31-19.33h0l4.82-14.73h0l.64-2,.13-.4a1,1,0,0,0,.06-.25c.13-1.09-1-2.13-2.62-2.32L411,3.72h0l-.28,0h-.08a.81.81,0,0,0-.22,0h-.07l-.26,0H410a.58.58,0,0,0-.19,0h-.09l-.19,0-.11,0-.15,0-.11,0-.1,0a3.61,3.61,0,0,0-.39.22l0,0-.12.09h0a1.64,1.64,0,0,0-.34.36h0A1.44,1.44,0,0,0,407.88,5.63Z"/></g><g id="TeaVup-3" data-name="TeaVup"><path class="cls-7" d="M511.39,95.2c.9-.39,10.31,2.64,10.76,5.75.38,2.72-4.64,5.52-8.82,6.79a25.32,25.32,0,0,1-14.71-.31S507.38,96.91,511.39,95.2Z"/><path class="cls-8" d="M474.71,49.19c.56-.94,2.12-1,3.48-.22L523,75.88a2.7,2.7,0,0,1,.33.22c1.27.94,1.69,2.36,1,3.18l-1.68,1.84L512.13,92.57,495,111.31,490.76,116c-.68.74-2.1.74-3.32,0L459.32,99.11c-1.24-.74-1.9-2-1.56-2.94l2.15-6,8.59-23.85,5.24-14.56.85-2.36A1.34,1.34,0,0,1,474.71,49.19Z"/><path class="cls-9" d="M474,48.07l1.35-2.25a2.25,2.25,0,0,1,3.1-.45A276.56,276.56,0,0,0,526.06,74h0a2.23,2.23,0,0,1,1.05,3l-1.35,2.24h0a2.22,2.22,0,0,1-3.09.46A311.82,311.82,0,0,1,475.08,51,2.25,2.25,0,0,1,474,48.07Z"/><path class="cls-1" d="M474.43,49.7l-.85,2.35a438.7,438.7,0,0,0,45.26,27.47L508.56,90.78,468.34,66.62l-8.59,23.84,31.72,19.06-5.17,5.66a1.45,1.45,0,0,1-.36.28l1.34.8c1.23.74,2.64.74,3.32,0l7.66-8.4,13.72-15h0l10.45-11.44h0l1.4-1.54.28-.31a1.16,1.16,0,0,0,.16-.21c.57-.94-.07-2.36-1.44-3.19L478,49.23h0l-.25-.14-.07,0a.88.88,0,0,0-.2-.09l-.06,0-.25-.09-.07,0-.18,0-.09,0-.19,0-.12,0h-.37a2.15,2.15,0,0,0-.45,0h-.05l-.15,0h0a1.84,1.84,0,0,0-.45.18h0A1.4,1.4,0,0,0,474.43,49.7Z"/></g><g id="TeaVup-4" data-name="TeaVup"><path class="cls-7" d="M387.57,55.34c-.57-.8-10.2-3.05-12.18-.61-1.73,2.13,1.13,7.12,4.06,10.36a25.31,25.31,0,0,0,12.77,7.31S390.13,58.87,387.57,55.34Z"/><path class="cls-8" d="M442.68,35.06l-.48,2.46-3,15.19-4.92,24.86L433,83.79c-.19,1-1.41,1.72-2.85,1.72h-32.8c-1.44,0-2.65-.73-2.85-1.71l-1.25-6.23-5-24.86-3.06-15.2-.49-2.44c-.22-1.09.88-2.09,2.45-2.24l.39,0h52.26c1.58,0,2.87.89,2.87,2A1.15,1.15,0,0,1,442.68,35.06Z"/><path class="cls-9" d="M441.45,36.17a312,312,0,0,1-55.52,0,2.23,2.23,0,0,1-2.42-2h0V31.56a2.23,2.23,0,0,1,2.42-2h0a276.9,276.9,0,0,0,55.52,0,2.23,2.23,0,0,1,2.41,2v2.62A2.23,2.23,0,0,1,441.45,36.17Z"/><path class="cls-1" d="M442.52,34.4h0a3.27,3.27,0,0,0-.29-.39h0l-.11-.1,0,0a2.68,2.68,0,0,0-.37-.26l-.09-.05-.1-.06-.14-.06-.11,0-.18-.07-.09,0-.18,0-.08,0-.25,0h-.07l-.22,0H387.58c-1.59,0-2.87.89-2.87,2a1.09,1.09,0,0,0,0,.26l.08.41.41,2h0L388.29,53h0l4,19.94,2.24,11.15c.2,1,1.41,1.71,2.85,1.71H399a1.43,1.43,0,0,1-.17-.43l-1.51-7.51h37L439.19,53H392.27l-3-14.95a439,439,0,0,0,52.94-.23l.48-2.46A1.39,1.39,0,0,0,442.52,34.4Z"/></g></g></g></svg>